<mxfile host="app.diagrams.net" modified="2023-09-04T06:23:56.655Z" agent="Mozilla/5.0 (Macintosh; Intel Mac OS X 10_15_7) AppleWebKit/537.36 (KHTML, like Gecko) Chrome/116.0.0.0 Safari/537.36" etag="029qWlEEEuqtorNIgCH7" version="21.7.2" type="github">
  <diagram name="第 1 页" id="TEIqw1Tw-UiGP3Q-P10n">
    <mxGraphModel dx="1242" dy="872" grid="1" gridSize="10" guides="1" tooltips="1" connect="1" arrows="1" fold="1" page="1" pageScale="1" pageWidth="827" pageHeight="1169" math="0" shadow="0">
      <root>
        <mxCell id="0" />
        <mxCell id="1" parent="0" />
        <mxCell id="QzGmOIqHS5amK_-feTAW-2" value="对的" style="verticalLabelPosition=middle;verticalAlign=middle;html=1;shape=mxgraph.basic.patternFillRect;fillStyle=diag;step=5;fillStrokeWidth=0.2;fillStrokeColor=#dddddd;sketch=1;hachureGap=4;jiggle=2;curveFitting=1;fontFamily=手札体-简;fontSize=20;labelPosition=center;align=center;fillColor=#b1ddf0;strokeColor=#10739e;" vertex="1" parent="1">
          <mxGeometry x="60" y="820" width="150" height="55" as="geometry" />
        </mxCell>
        <mxCell id="QzGmOIqHS5amK_-feTAW-3" value="保留区" style="verticalLabelPosition=middle;verticalAlign=middle;html=1;shape=mxgraph.basic.patternFillRect;fillStyle=diag;step=5;fillStrokeWidth=0.2;fillStrokeColor=#dddddd;sketch=1;hachureGap=4;jiggle=2;curveFitting=1;fontFamily=手札体-简;fontSize=20;labelPosition=center;align=center;fillColor=#bac8d3;strokeColor=#23445d;" vertex="1" parent="1">
          <mxGeometry x="60" y="880" width="150" height="55" as="geometry" />
        </mxCell>
      </root>
    </mxGraphModel>
  </diagram>
</mxfile>
